<?xml version="1.0" standalone="no"?>
<!DOCTYPE svg PUBLIC "-//W3C//DTD SVG 20010904//EN"
 "http://www.w3.org/TR/2001/REC-SVG-20010904/DTD/svg10.dtd">
<svg version="1.0" xmlns="http://www.w3.org/2000/svg"
 width="2100.000000pt" height="1500.000000pt" viewBox="0 0 2100.000000 1500.000000"
 preserveAspectRatio="xMidYMid meet">

<g transform="translate(0.000000,1500.000000) scale(0.100000,-0.100000)"
fill="#000000" stroke="none">
<path d="M10210 11183 c-84 -6 -295 -35 -400 -55 -1120 -211 -2090 -938 -2613
-1961 -207 -402 -336 -844 -388 -1327 -16 -148 -16 -571 0 -720 79 -737 345
-1393 794 -1955 539 -676 1304 -1147 2142 -1319 266 -55 482 -76 770 -76 756
1 1448 214 2080 641 199 134 333 246 531 444 271 270 469 533 643 850 546
1001 597 2226 137 3271 -464 1053 -1395 1836 -2509 2109 -169 42 -401 81 -562
95 -109 9 -515 11 -625 3z m-405 -1908 c80 -17 230 -89 319 -154 175 -128 309
-302 351 -458 l18 -63 57 118 c65 133 119 210 209 299 116 114 268 199 438
245 122 32 338 36 471 9 279 -58 527 -224 677 -455 73 -112 102 -178 133 -311
25 -103 27 -125 27 -360 0 -281 -13 -370 -79 -538 -81 -207 -173 -341 -364
-529 -199 -197 -318 -297 -632 -529 -280 -207 -582 -470 -791 -687 -70 -73
-137 -134 -151 -137 -23 -6 -32 3 -95 92 -121 169 -286 316 -748 668 -385 293
-572 452 -756 642 -191 196 -301 401 -365 678 -27 114 -28 133 -28 370 -1 232
1 256 22 329 64 222 255 483 444 608 118 79 283 150 386 168 84 14 381 11 457
-5z"/>
<path d="M14495 10870 c-4 -6 -4 -199 -1 -428 13 -873 16 -1059 21 -1482 3
-239 7 -595 10 -790 3 -195 7 -535 10 -755 3 -220 7 -539 10 -710 3 -170 7
-497 10 -725 9 -670 15 -919 21 -948 25 -101 110 -179 209 -189 91 -10 135 3
192 52 97 85 95 72 93 552 0 230 -3 621 -6 868 -4 425 -6 453 -25 505 -128
337 -63 592 183 717 35 18 71 34 80 37 15 5 17 17 13 108 -2 57 -7 197 -10
312 -3 115 -8 212 -9 215 -2 3 -7 74 -10 156 -7 150 -10 186 -46 515 -92 836
-255 1428 -496 1803 -62 96 -153 187 -186 187 -15 0 -33 3 -41 6 -8 3 -18 0
-22 -6z"/>
<path d="M5930 10805 c-52 -136 -111 -897 -113 -1435 -1 -428 8 -459 188 -683
177 -220 178 -226 155 -877 -18 -498 -50 -883 -130 -1585 -45 -388 -56 -611
-42 -802 15 -196 51 -377 86 -438 85 -144 275 -167 393 -48 53 53 77 105 97
214 51 280 49 499 -14 1114 -56 551 -75 753 -95 1055 -14 220 -25 541 -26 810
-2 368 -9 344 161 550 73 90 127 188 154 281 53 183 27 1065 -50 1674 -18 144
-33 205 -44 185 -13 -26 -20 -124 -35 -540 -21 -563 -38 -764 -69 -806 -50
-68 -70 110 -86 761 -10 389 -21 579 -35 593 -22 22 -33 -93 -45 -478 -20
-674 -43 -890 -94 -890 -17 0 -31 39 -46 125 -5 33 -14 276 -19 540 -6 264
-12 527 -15 584 -5 96 -15 137 -29 114 -13 -21 -27 -198 -42 -518 -25 -554
-42 -755 -71 -825 -14 -33 -16 -34 -29 -16 -37 49 -52 249 -60 801 -6 439 -12
565 -26 565 -5 0 -14 -11 -19 -25z"/>
</g>
</svg>
